<?xml version="1.0" standalone="no"?>
<!DOCTYPE svg PUBLIC "-//W3C//DTD SVG 20010904//EN"
 "http://www.w3.org/TR/2001/REC-SVG-20010904/DTD/svg10.dtd">
<svg version="1.0" xmlns="http://www.w3.org/2000/svg"
 width="900.000000pt" height="820.000000pt" viewBox="0 0 900.000000 820.000000"
 preserveAspectRatio="xMidYMid meet">
<metadata>
Created by potrace 1.16, written by Peter Selinger 2001-2019
</metadata>
<g transform="translate(0.000000,820.000000) scale(0.100000,-0.100000)"
fill="#000000" stroke="none">
<path d="M5463 8174 c-440 -68 -861 -281 -1174 -593 -172 -173 -306 -362 -422
-595 -179 -361 -202 -482 -194 -1022 4 -316 5 -333 30 -419 41 -145 93 -281
162 -423 115 -237 235 -401 438 -599 258 -250 493 -392 857 -515 171 -58 258
-68 597 -68 429 0 566 20 788 115 337 144 566 296 781 516 263 271 439 594
538 986 34 132 44 202 56 372 42 573 -182 1184 -589 1605 -170 175 -320 291
-528 405 -226 125 -488 206 -773 241 -121 14 -457 11 -567 -6z m416 -419 c85
-20 175 -69 217 -119 20 -23 51 -74 71 -113 81 -163 42 -358 -94 -483 -171
-156 -421 -152 -583 10 -207 206 -155 528 106 667 101 54 173 64 283 38z
m-1085 -650 c68 -18 124 -54 187 -121 193 -207 127 -542 -131 -667 -84 -40
-216 -50 -301 -22 -108 35 -185 98 -242 196 -67 115 -76 275 -23 384 52 106
181 215 277 234 71 14 170 12 233 -4z m2223 0 c111 -33 204 -104 250 -192 117
-221 33 -493 -185 -596 -63 -30 -74 -32 -177 -32 -105 0 -114 2 -177 33 -163
80 -269 268 -247 438 9 64 56 165 103 220 43 50 121 102 190 126 63 22 175 23
243 3z m-1105 -842 c44 -25 59 -41 86 -92 58 -113 37 -230 -55 -295 -59 -41
-97 -54 -163 -55 -97 -1 -182 57 -216 146 -20 52 -15 153 10 201 22 42 81 101
120 118 51 24 154 13 218 -23z m-1149 -438 c80 -21 165 -66 210 -111 21 -22
55 -73 75 -114 36 -73 37 -79 37 -185 0 -103 -2 -114 -32 -177 -79 -167 -241
-260 -428 -245 -84 6 -142 30 -212 86 -127 100 -188 273 -152 430 53 231 280
374 502 316z m2222 1 c143 -38 262 -132 306 -241 20 -51 24 -78 24 -175 0
-110 -1 -118 -32 -181 -21 -41 -53 -85 -88 -118 -263 -249 -690 -85 -712 273
-12 177 77 332 231 406 106 50 181 60 271 36z m-1076 -655 c206 -64 326 -255
292 -465 -29 -180 -150 -310 -322 -347 -64 -14 -187 -6 -249 15 -138 49 -252
207 -267 372 -8 81 23 182 80 265 100 147 294 214 466 160z"/>
<path d="M1426 7339 c-139 -16 -310 -71 -469 -151 -183 -91 -296 -175 -457
-337 -153 -154 -239 -273 -330 -456 -123 -247 -158 -390 -167 -675 -12 -372
32 -579 183 -870 84 -160 174 -280 324 -431 101 -101 164 -154 250 -212 187
-124 389 -211 590 -254 71 -15 132 -18 370 -18 252 1 296 3 381 22 172 37 387
135 586 265 132 86 334 285 435 428 123 173 239 438 282 640 29 140 41 337 28
483 -37 436 -218 810 -540 1119 -114 109 -232 192 -392 276 -195 102 -352 154
-512 172 -111 11 -459 11 -562 -1z m423 -348 c64 -33 148 -121 179 -188 71
-155 -5 -355 -166 -434 -38 -19 -63 -24 -137 -24 -77 0 -98 4 -147 27 -69 32
-142 103 -171 166 -32 70 -32 219 1 281 37 69 111 141 177 173 54 26 68 29
140 25 58 -2 92 -10 124 -26z m-943 -506 c252 -75 332 -394 143 -570 -74 -69
-126 -89 -234 -89 -79 -1 -96 2 -143 27 -120 63 -182 154 -190 281 -6 94 16
168 68 235 85 108 228 154 356 116z m1848 -20 c71 -34 126 -86 163 -157 25
-48 28 -63 28 -153 0 -85 -3 -106 -23 -143 -35 -66 -90 -121 -156 -155 -55
-29 -70 -32 -151 -32 -80 0 -97 3 -148 30 -156 78 -228 265 -167 428 67 179
280 265 454 182z m-966 -644 c127 -65 150 -235 46 -333 -136 -127 -348 17
-299 204 30 117 154 180 253 129z m-863 -382 c83 -25 144 -79 188 -164 25 -50
31 -75 35 -148 4 -83 3 -91 -28 -153 -34 -70 -90 -123 -177 -165 -38 -19 -64
-24 -128 -24 -64 0 -90 5 -128 24 -78 38 -144 97 -174 154 -25 46 -28 63 -28
152 0 117 18 166 85 239 89 97 218 128 355 85z m1807 1 c53 -15 117 -67 156
-124 95 -141 78 -342 -38 -438 -19 -16 -67 -45 -107 -65 -65 -32 -78 -35 -140
-31 -135 7 -275 109 -309 223 -22 77 -16 192 15 260 38 85 120 156 211 182 49
14 154 11 212 -7z m-874 -535 c71 -32 133 -93 165 -163 18 -38 22 -66 22 -147
0 -91 -2 -104 -27 -146 -34 -58 -113 -130 -176 -161 -69 -34 -186 -33 -263 3
-76 36 -152 114 -178 184 -40 105 -22 243 42 326 102 134 260 173 415 104z"/>
<path d="M3350 4398 c-230 -240 -382 -360 -610 -481 -210 -111 -490 -207 -667
-228 -56 -7 -218 -9 -425 -7 l-333 5 -120 32 c-233 63 -561 213 -784 360 l-24
15 7 -1774 7 -1775 55 -87 c66 -105 124 -159 231 -215 l80 -43 3063 0 3063 0
76 42 c96 53 189 141 230 218 31 57 33 67 41 222 11 187 13 2816 3 3166 -7
269 7 250 -131 170 -551 -319 -1210 -425 -1853 -298 -390 78 -807 274 -1124
529 -49 39 -147 126 -217 191 l-126 120 -144 0 -143 0 -155 -162z m860 -1533
c513 -256 931 -468 928 -470 -2 -3 -119 -65 -259 -138 -140 -74 -387 -204
-549 -289 -605 -318 -982 -509 -1008 -511 -26 -2 -27 0 -33 68 -4 39 -10 419
-13 845 -3 426 -9 817 -13 868 -4 61 -2 92 5 92 5 0 430 -209 942 -465z"/>
<path d="M8800 4029 c-96 -50 -357 -184 -580 -297 -223 -113 -472 -241 -555
-283 l-150 -78 -3 -979 c-2 -776 1 -982 10 -990 19 -14 789 -417 1158 -605
l315 -161 3 920 c4 1004 -7 2564 -17 2564 -3 0 -85 -41 -181 -91z"/>
</g>
</svg>
